<?xml version="1.0" standalone="no"?>
<!DOCTYPE svg PUBLIC "-//W3C//DTD SVG 20010904//EN"
 "http://www.w3.org/TR/2001/REC-SVG-20010904/DTD/svg10.dtd">
<svg version="1.0" xmlns="http://www.w3.org/2000/svg"
 width="2024.000000pt" height="2024.000000pt" viewBox="0 0 2024.000000 2024.000000"
 preserveAspectRatio="xMidYMid meet">
<metadata>
Created by potrace 1.14, written by Peter Selinger 2001-2017
</metadata>
<g transform="translate(0.000000,2024.000000) scale(0.100000,-0.100000)"
fill="#000000" stroke="none">
<path d="M120 17198 l0 -2968 318 0 319 0 0 2633 c0 1449 2 2638 5 2643 5 7
18606 12 18708 5 13 -1 15 -301 14 -2641 l-1 -2640 319 0 318 0 0 2968 0 2968
-10000 0 -10000 0 0 -2968z"/>
<path d="M16898 13735 c-2 -2 -68 -6 -147 -9 -79 -4 -146 -8 -150 -10 -3 -2
-49 -7 -101 -11 -52 -3 -97 -8 -100 -10 -3 -1 -32 -6 -65 -9 -76 -9 -164 -23
-275 -46 -30 -6 -66 -13 -80 -16 -14 -3 -33 -7 -42 -10 -9 -3 -25 -6 -35 -8
-10 -2 -58 -16 -108 -30 -49 -15 -98 -28 -107 -31 -97 -23 -411 -147 -562
-222 -502 -249 -820 -552 -1037 -988 -60 -119 -125 -285 -144 -365 -1 -3 -11
-45 -23 -95 -11 -49 -24 -112 -28 -140 -3 -27 -8 -59 -10 -70 -19 -99 -26
-458 -12 -586 60 -527 311 -911 784 -1196 131 -80 310 -169 464 -233 69 -28
134 -55 145 -60 79 -33 448 -153 570 -185 53 -14 137 -31 195 -40 19 -3 69
-12 110 -19 96 -18 139 -26 170 -32 237 -43 639 -152 814 -220 204 -80 343
-187 393 -304 18 -43 24 -136 11 -193 -31 -145 -151 -265 -325 -325 -211 -73
-486 -28 -610 100 -34 35 -123 189 -123 213 0 24 -72 148 -106 182 -63 63 -40
61 -724 49 -411 -7 -742 -14 -985 -21 -162 -4 -735 -8 -750 -5 -27 6 -48 -2
-72 -26 -24 -25 -25 -28 -19 -120 3 -53 7 -98 10 -102 2 -4 7 -31 10 -61 4
-29 8 -56 10 -60 3 -4 7 -24 10 -46 4 -22 13 -67 21 -100 9 -33 18 -70 20 -82
13 -55 81 -237 121 -323 100 -212 219 -386 367 -534 85 -85 227 -206 243 -206
3 0 23 -13 43 -28 84 -66 328 -188 506 -254 158 -58 411 -134 505 -152 14 -2
57 -11 95 -19 39 -9 88 -18 110 -21 22 -4 65 -11 95 -16 30 -5 73 -11 95 -14
22 -3 56 -8 75 -11 49 -7 115 -13 202 -20 40 -4 84 -8 98 -10 145 -25 662 -25
810 -1 14 3 59 7 100 10 41 4 89 8 105 11 17 2 98 13 180 25 145 19 171 24
225 35 14 3 41 7 60 10 19 2 105 20 190 40 149 33 193 44 270 66 19 5 42 12
50 14 8 2 15 4 15 5 0 1 10 3 22 6 51 9 288 101 400 154 539 257 891 601 1073
1050 12 30 26 64 31 75 32 76 84 271 116 430 18 92 29 727 14 805 -5 25 -11
59 -14 75 -31 194 -125 432 -241 615 -88 138 -235 293 -390 413 -47 37 -88 67
-91 67 -3 0 -26 15 -52 34 -41 29 -278 166 -288 166 -1 0 -46 21 -100 46 -146
68 -489 198 -581 219 -10 2 -93 25 -184 51 -91 25 -173 48 -183 50 -11 2 -92
22 -180 45 -89 22 -169 43 -177 44 -8 2 -96 25 -195 50 -405 106 -691 186
-744 210 -85 39 -172 102 -211 152 -29 38 -35 55 -38 107 -4 58 -2 65 29 105
64 83 181 134 399 175 133 26 295 7 375 -42 21 -13 49 -53 85 -121 78 -146
101 -174 156 -201 93 -43 158 -48 680 -45 600 4 1044 12 1526 30 l106 4 80 81
c59 60 79 87 77 103 -2 12 -6 54 -9 92 -7 79 -22 178 -37 245 -6 25 -12 54
-15 65 -39 193 -217 495 -426 724 -123 136 -383 394 -418 416 -116 73 -321
167 -500 230 -58 20 -112 38 -120 40 -8 2 -78 20 -155 40 -138 35 -365 78
-480 89 -33 4 -71 8 -85 11 -14 2 -61 7 -105 10 -44 3 -105 9 -135 11 -55 6
-567 13 -572 9z"/>
<path d="M2809 13696 c-2 -2 -22 -7 -44 -10 -61 -10 -109 -24 -127 -38 -8 -7
-57 -123 -108 -258 -51 -135 -153 -405 -227 -600 -188 -496 -339 -896 -385
-1020 -21 -58 -42 -114 -47 -125 -5 -11 -21 -54 -36 -95 -55 -150 -75 -205
-84 -225 -13 -31 -47 -121 -81 -215 -17 -47 -34 -94 -39 -105 -15 -35 -301
-801 -403 -1080 -72 -196 -95 -256 -193 -520 -53 -143 -102 -276 -109 -295 -7
-19 -70 -190 -140 -380 -70 -190 -154 -419 -187 -510 -34 -91 -67 -179 -75
-197 -8 -17 -14 -34 -14 -38 0 -4 -25 -76 -56 -159 -31 -83 -74 -198 -94 -256
-21 -58 -83 -230 -139 -382 -68 -187 -101 -291 -101 -319 0 -41 62 -211 116
-320 l23 -47 298 3 c164 1 348 5 408 8 61 4 164 9 231 12 83 3 151 13 218 30
174 45 250 95 319 208 49 80 61 108 112 282 29 97 343 977 375 1050 27 60 202
552 294 825 58 173 196 583 306 910 111 327 234 694 275 815 41 121 137 409
215 640 77 231 144 427 147 435 3 8 7 20 9 25 1 6 34 105 73 220 40 116 106
311 147 435 72 214 152 439 176 498 6 15 12 32 14 37 1 6 20 55 42 110 108
276 150 464 123 548 -11 33 -51 64 -94 73 -12 3 -33 7 -47 10 -28 7 -175 10
-721 18 -201 3 -368 4 -370 2z"/>
<path d="M4817 13554 c-1 -1 -49 -4 -107 -7 -163 -10 -246 -42 -268 -105 -6
-19 -10 -1182 -10 -3341 0 -2911 2 -3313 15 -3326 22 -23 43 -32 93 -41 25 -4
313 -6 640 -5 327 2 794 4 1037 5 423 2 443 3 464 21 37 33 47 73 42 165 -7
133 -6 1867 1 2140 15 596 18 705 31 1070 7 226 16 415 20 418 2 3 32 -116 41
-169 3 -14 67 -286 140 -589 14 -58 32 -133 40 -167 7 -35 21 -93 30 -130 9
-37 17 -74 19 -84 4 -17 36 -166 62 -279 8 -36 16 -76 19 -90 22 -109 76 -357
119 -545 12 -51 27 -118 40 -175 2 -8 20 -87 40 -175 47 -200 76 -326 80 -345
2 -8 8 -35 14 -60 5 -25 12 -56 15 -70 2 -14 16 -74 31 -135 14 -60 28 -117
30 -125 5 -22 76 -332 80 -350 2 -8 13 -60 25 -115 28 -127 54 -169 125 -201
30 -14 64 -28 77 -32 37 -11 1845 -12 1918 -1 36 5 87 16 113 25 48 16 114 72
114 98 0 7 5 33 11 57 15 57 112 483 152 669 17 80 38 174 46 210 8 36 16 74
19 85 2 11 18 85 35 165 17 80 33 154 36 165 2 11 15 74 30 140 14 66 28 131
30 145 3 14 7 33 10 42 3 9 6 25 9 35 2 10 22 104 45 208 23 105 43 199 45
210 3 11 23 101 46 200 22 99 43 191 45 204 3 14 7 28 9 31 2 4 7 22 10 41 3
19 38 162 76 319 101 408 120 482 124 478 14 -15 16 -248 12 -1943 -2 -680 2
-833 28 -1049 34 -286 80 -435 158 -523 l20 -23 1036 0 c1012 0 1037 1 1080
20 52 24 94 68 122 129 34 72 47 124 84 336 24 143 24 533 0 1070 -6 125 -15
491 -30 1225 -3 140 -7 352 -10 470 -3 118 -7 319 -10 445 -3 127 -7 336 -10
465 -3 129 -8 334 -10 455 -3 121 -7 315 -10 430 -3 116 -7 316 -10 445 -28
1311 -24 1210 -56 1278 -40 81 45 76 -1109 68 -564 -4 -1191 -10 -1395 -12
-584 -8 -1077 -8 -1112 1 -28 6 -33 5 -37 -16 -7 -34 -134 -678 -140 -712 -3
-15 -7 -35 -10 -45 -3 -9 -7 -35 -11 -57 -3 -22 -12 -67 -20 -100 -7 -33 -16
-80 -20 -105 -4 -24 -8 -47 -10 -50 -2 -3 -6 -23 -9 -45 -4 -22 -8 -47 -11
-55 -2 -8 -6 -26 -9 -40 -13 -72 -69 -356 -100 -510 -19 -96 -38 -188 -41
-205 -6 -34 -10 -59 -25 -130 -6 -27 -12 -59 -14 -70 -2 -11 -34 -168 -70
-350 -36 -181 -67 -341 -70 -355 -2 -14 -11 -56 -19 -95 -9 -38 -18 -86 -21
-105 -3 -19 -8 -44 -10 -55 -17 -83 -36 -175 -40 -200 -3 -16 -8 -41 -11 -55
-15 -70 -38 -187 -38 -197 -1 -23 -17 -14 -18 10 0 12 -2 29 -4 37 -1 8 -8 44
-15 80 -6 36 -22 121 -36 190 -13 69 -33 172 -44 230 -11 58 -35 186 -54 285
-19 99 -37 194 -40 210 -3 17 -10 55 -16 85 -6 30 -13 66 -16 80 -2 14 -11 59
-19 100 -8 41 -17 89 -20 105 -15 83 -35 183 -39 208 -4 15 -8 39 -11 55 -11
67 -67 351 -75 387 -5 22 -23 114 -40 205 -17 91 -35 183 -40 205 -5 22 -12
58 -16 80 -11 59 -22 115 -29 150 -2 6 -5 28 -9 50 -3 22 -10 60 -16 85 -11
52 -54 276 -69 365 -6 33 -13 71 -16 85 -3 14 -12 66 -21 115 -9 50 -19 93
-23 97 -3 3 -98 9 -211 13 -218 7 -257 9 -415 20 -173 12 -421 24 -610 30 -60
2 -504 7 -985 10 -481 3 -912 7 -958 8 -46 1 -84 2 -85 1z"/>
<path d="M120 3042 l0 -2968 10000 0 10000 0 0 2968 0 2968 -318 0 -319 0 0
-2635 c0 -1449 -3 -2638 -7 -2642 -10 -10 -18707 -9 -18714 1 -3 5 -5 1194 -5
2643 l0 2633 -319 0 -318 0 0 -2968z"/>
</g>
</svg>
